<mxfile host="app.diagrams.net" modified="2021-06-24T14:43:36.668Z" agent="5.0 (X11)" etag="9cYVajgVOe1Pvl2KtEOR" version="14.8.0" type="github">
  <diagram id="vOAoNFxlVuMxAh5QzLYL" name="Page-1">
    <mxGraphModel dx="782" dy="463" grid="1" gridSize="10" guides="1" tooltips="1" connect="1" arrows="1" fold="1" page="1" pageScale="1" pageWidth="1169" pageHeight="827" math="0" shadow="0">
      <root>
        <mxCell id="0" />
        <mxCell id="1" parent="0" />
        <mxCell id="kN34SaEQLrxazzsMNC9S-1" value="&quot;interface&quot;&#xa;Color&#xa;" style="swimlane;fontStyle=1;align=center;verticalAlign=top;childLayout=stackLayout;horizontal=1;startSize=40;horizontalStack=0;resizeParent=1;resizeParentMax=0;resizeLast=0;collapsible=1;marginBottom=0;" vertex="1" parent="1">
          <mxGeometry x="370" y="150" width="160" height="74" as="geometry" />
        </mxCell>
        <mxCell id="kN34SaEQLrxazzsMNC9S-3" value="" style="line;strokeWidth=1;fillColor=none;align=left;verticalAlign=middle;spacingTop=-1;spacingLeft=3;spacingRight=3;rotatable=0;labelPosition=right;points=[];portConstraint=eastwest;" vertex="1" parent="kN34SaEQLrxazzsMNC9S-1">
          <mxGeometry y="40" width="160" height="8" as="geometry" />
        </mxCell>
        <mxCell id="kN34SaEQLrxazzsMNC9S-4" value="+write(string):void" style="text;strokeColor=none;fillColor=none;align=left;verticalAlign=top;spacingLeft=4;spacingRight=4;overflow=hidden;rotatable=0;points=[[0,0.5],[1,0.5]];portConstraint=eastwest;" vertex="1" parent="kN34SaEQLrxazzsMNC9S-1">
          <mxGeometry y="48" width="160" height="26" as="geometry" />
        </mxCell>
        <mxCell id="kN34SaEQLrxazzsMNC9S-5" value="Red" style="swimlane;fontStyle=1;align=center;verticalAlign=top;childLayout=stackLayout;horizontal=1;startSize=26;horizontalStack=0;resizeParent=1;resizeParentMax=0;resizeLast=0;collapsible=1;marginBottom=0;" vertex="1" parent="1">
          <mxGeometry x="290" y="290" width="160" height="34" as="geometry" />
        </mxCell>
        <mxCell id="kN34SaEQLrxazzsMNC9S-7" value="" style="line;strokeWidth=1;fillColor=none;align=left;verticalAlign=middle;spacingTop=-1;spacingLeft=3;spacingRight=3;rotatable=0;labelPosition=right;points=[];portConstraint=eastwest;" vertex="1" parent="kN34SaEQLrxazzsMNC9S-5">
          <mxGeometry y="26" width="160" height="8" as="geometry" />
        </mxCell>
        <mxCell id="kN34SaEQLrxazzsMNC9S-9" value="Green" style="swimlane;fontStyle=1;align=center;verticalAlign=top;childLayout=stackLayout;horizontal=1;startSize=26;horizontalStack=0;resizeParent=1;resizeParentMax=0;resizeLast=0;collapsible=1;marginBottom=0;" vertex="1" parent="1">
          <mxGeometry x="470" y="290" width="160" height="34" as="geometry" />
        </mxCell>
        <mxCell id="kN34SaEQLrxazzsMNC9S-11" value="" style="line;strokeWidth=1;fillColor=none;align=left;verticalAlign=middle;spacingTop=-1;spacingLeft=3;spacingRight=3;rotatable=0;labelPosition=right;points=[];portConstraint=eastwest;" vertex="1" parent="kN34SaEQLrxazzsMNC9S-9">
          <mxGeometry y="26" width="160" height="8" as="geometry" />
        </mxCell>
        <mxCell id="kN34SaEQLrxazzsMNC9S-13" value="TextEditor" style="swimlane;fontStyle=1;align=center;verticalAlign=top;childLayout=stackLayout;horizontal=1;startSize=26;horizontalStack=0;resizeParent=1;resizeParentMax=0;resizeLast=0;collapsible=1;marginBottom=0;" vertex="1" parent="1">
          <mxGeometry x="140" y="130" width="160" height="110" as="geometry" />
        </mxCell>
        <mxCell id="kN34SaEQLrxazzsMNC9S-14" value="-color:Color" style="text;strokeColor=none;fillColor=none;align=left;verticalAlign=top;spacingLeft=4;spacingRight=4;overflow=hidden;rotatable=0;points=[[0,0.5],[1,0.5]];portConstraint=eastwest;" vertex="1" parent="kN34SaEQLrxazzsMNC9S-13">
          <mxGeometry y="26" width="160" height="26" as="geometry" />
        </mxCell>
        <mxCell id="kN34SaEQLrxazzsMNC9S-15" value="" style="line;strokeWidth=1;fillColor=none;align=left;verticalAlign=middle;spacingTop=-1;spacingLeft=3;spacingRight=3;rotatable=0;labelPosition=right;points=[];portConstraint=eastwest;" vertex="1" parent="kN34SaEQLrxazzsMNC9S-13">
          <mxGeometry y="52" width="160" height="8" as="geometry" />
        </mxCell>
        <mxCell id="kN34SaEQLrxazzsMNC9S-16" value="+constructor(Color)&#xa;+setColor(Color):void&#xa;+type(string):void&#xa;" style="text;strokeColor=none;fillColor=none;align=left;verticalAlign=top;spacingLeft=4;spacingRight=4;overflow=hidden;rotatable=0;points=[[0,0.5],[1,0.5]];portConstraint=eastwest;" vertex="1" parent="kN34SaEQLrxazzsMNC9S-13">
          <mxGeometry y="60" width="160" height="50" as="geometry" />
        </mxCell>
        <mxCell id="kN34SaEQLrxazzsMNC9S-17" value="" style="endArrow=block;dashed=1;endFill=0;endSize=12;html=1;exitX=0.5;exitY=0;exitDx=0;exitDy=0;" edge="1" parent="1" source="kN34SaEQLrxazzsMNC9S-5" target="kN34SaEQLrxazzsMNC9S-4">
          <mxGeometry width="160" relative="1" as="geometry">
            <mxPoint x="380" y="400" as="sourcePoint" />
            <mxPoint x="420" y="240" as="targetPoint" />
          </mxGeometry>
        </mxCell>
        <mxCell id="kN34SaEQLrxazzsMNC9S-18" value="" style="endArrow=block;dashed=1;endFill=0;endSize=12;html=1;exitX=0.5;exitY=0;exitDx=0;exitDy=0;" edge="1" parent="1" source="kN34SaEQLrxazzsMNC9S-9" target="kN34SaEQLrxazzsMNC9S-4">
          <mxGeometry width="160" relative="1" as="geometry">
            <mxPoint x="560" y="230" as="sourcePoint" />
            <mxPoint x="460" y="250" as="targetPoint" />
          </mxGeometry>
        </mxCell>
        <mxCell id="kN34SaEQLrxazzsMNC9S-19" value="" style="endArrow=openThin;endFill=0;endSize=12;html=1;exitX=1;exitY=0.5;exitDx=0;exitDy=0;entryX=0;entryY=0.25;entryDx=0;entryDy=0;startArrow=diamondThin;startFill=0;startSize=15;" edge="1" parent="1" source="kN34SaEQLrxazzsMNC9S-14" target="kN34SaEQLrxazzsMNC9S-1">
          <mxGeometry width="160" relative="1" as="geometry">
            <mxPoint x="310" y="450" as="sourcePoint" />
            <mxPoint x="470" y="450" as="targetPoint" />
          </mxGeometry>
        </mxCell>
      </root>
    </mxGraphModel>
  </diagram>
</mxfile>
